# xmcd
#
# Track frame offsets:
#	150
#	12068
#	23003
#	35416
#	48436
#	57781
#	69204
#	80507
#	92635
#	103533
#	113718
#	124188
#	134861
#	143741
#
# Disc length: 2023 seconds
#
# Revision: 1
# Processed by: cddbd v1.5.2PL0 Copyright (c) Steve Scherf et al.
# Submitted via: audiograbber 1.83.01
#
DISCID=b307e50e
DTITLE=Johnny Rodriguez - The Greatest Hits Of 
DYEAR=1976
DGENRE=Country
TTITLE0=I Couldn't Be Me Without You
TTITLE1=Pass Me By (If You're Only Passing Through)
TTITLE2=Something
TTITLE3=Faded Love
TTITLE4=Ridin' My Thumb to Mexico
TTITLE5=Born To Lose
TTITLE6=I Just Can't Get Her Out Of My Mind
TTITLE7=Love Put A Song In My Heart
TTITLE8=Dance With Me (Just One More Time)
TTITLE9=You Always Come Back (To Hurting Me)
TTITLE10=We're Over
TTITLE11=Jealous Heart
TTITLE12=Just Get Up And Close The Door
TTITLE13=That's The Way Love Goes
EXTD=
EXTT0=
EXTT1=
EXTT2=
EXTT3=
EXTT4=
EXTT5=
EXTT6=
EXTT7=
EXTT8=
EXTT9=
EXTT10=
EXTT11=
EXTT12=
EXTT13=
PLAYORDER=
